STARTFONT 2.3
FONT -FontForge-Zen Loop-Book-R-Normal--14-140-72-72-P-44-ISO10646-1
SIZE 14 72 72  4
FONTBOUNDINGBOX 13 17 -2 -4
COMMENT "Generated by fontforge, http://fontforge.sourceforge.net"
COMMENT "Copyright 2021 The Zen-Loop Project Authors (https://github.com/googlefonts/zen-loop)"
STARTPROPERTIES 40
FOUNDRY "FontForge"
FAMILY_NAME "Zen Loop"
WEIGHT_NAME "Book"
SLANT "R"
SETWIDTH_NAME "Normal"
ADD_STYLE_NAME ""
PIXEL_SIZE 14
POINT_SIZE 140
RESOLUTION_X 72
RESOLUTION_Y 72
SPACING "P"
AVERAGE_WIDTH 44
CHARSET_REGISTRY "ISO10646"
CHARSET_ENCODING "1"
FONTNAME_REGISTRY ""
CHARSET_COLLECTIONS "ISO10646-1"
BITS_PER_PIXEL 4
FONT_NAME "ZenLoop-Regular"
FACE_NAME "Zen Loop Regular"
COPYRIGHT "Copyright 2021 The Zen-Loop Project Authors (https://github.com/googlefonts/zen-loop)"
FONT_VERSION "1.000; ttfautohint (v1.8.3)"
FONT_ASCENT 11
FONT_DESCENT 3
UNDERLINE_POSITION -2
UNDERLINE_THICKNESS 1
X_HEIGHT 6
CAP_HEIGHT 9
RAW_ASCENT 800
RAW_DESCENT 200
NORM_SPACE 3
RELATIVE_WEIGHT 40
RELATIVE_SETWIDTH 50
SUPERSCRIPT_X 0
SUPERSCRIPT_Y 4
SUPERSCRIPT_SIZE 8
SUBSCRIPT_X 0
SUBSCRIPT_Y 1
SUBSCRIPT_SIZE 8
AVG_LOWERCASE_WIDTH 39
AVG_UPPERCASE_WIDTH 52
ENDPROPERTIES
CHARS 248
STARTCHAR CR
ENCODING 13
SWIDTH 600 0
DWIDTH 8 0
BBX 1 1 0 0
BITMAP
00
ENDCHAR
STARTCHAR space
ENCODING 32
SWIDTH 240 0
DWIDTH 3 0
BBX 1 1 0 0
BITMAP
00
ENDCHAR
STARTCHAR exclam
ENCODING 33
SWIDTH 141 0
DWIDTH 2 0
BBX 2 10 0 0
BITMAP
22
22
22
22
22
22
22
11
11
22
ENDCHAR
STARTCHAR quotedbl
ENCODING 34
SWIDTH 195 0
DWIDTH 3 0
BBX 2 3 0 7
BITMAP
44
44
33
ENDCHAR
STARTCHAR numbersign
ENCODING 35
SWIDTH 454 0
DWIDTH 6 0
BBX 6 10 0 0
BITMAP
004003
005031
004040
048474
023040
040040
374562
050410
040500
040400
ENDCHAR
STARTCHAR dollar
ENCODING 36
SWIDTH 356 0
DWIDTH 5 0
BBX 5 13 0 -2
BITMAP
004000
058500
414120
404000
144000
037000
007400
004330
104050
504040
158610
004000
002000
ENDCHAR
STARTCHAR percent
ENCODING 37
SWIDTH 470 0
DWIDTH 7 0
BBX 6 10 0 0
BITMAP
155002
503241
501350
323320
044500
001542
005505
005504
031504
040254
ENDCHAR
STARTCHAR ampersand
ENCODING 38
SWIDTH 520 0
DWIDTH 7 0
BBX 7 10 0 0
BITMAP
00444000
00505000
00523000
00550000
01620420
05042210
41055000
50017000
41036100
05440430
ENDCHAR
STARTCHAR quotesingle
ENCODING 39
SWIDTH 121 0
DWIDTH 2 0
BBX 1 3 0 7
BITMAP
40
40
30
ENDCHAR
STARTCHAR parenleft
ENCODING 40
SWIDTH 233 0
DWIDTH 3 0
BBX 2 12 1 -1
BITMAP
01
05
41
50
40
40
40
40
50
50
22
05
ENDCHAR
STARTCHAR parenright
ENCODING 41
SWIDTH 233 0
DWIDTH 3 0
BBX 3 12 0 -1
BITMAP
4100
0400
0500
0410
0230
0140
0130
0320
0500
0500
3200
1000
ENDCHAR
STARTCHAR asterisk
ENCODING 42
SWIDTH 313 0
DWIDTH 4 0
BBX 4 4 0 6
BITMAP
0040
2583
0460
0211
ENDCHAR
STARTCHAR plus
ENCODING 43
SWIDTH 577 0
DWIDTH 8 0
BBX 8 7 0 0
BITMAP
00013000
00023000
00023000
14466441
00023000
00023000
00013000
ENDCHAR
STARTCHAR comma
ENCODING 44
SWIDTH 145 0
DWIDTH 2 0
BBX 2 3 0 -2
BITMAP
13
23
51
ENDCHAR
STARTCHAR hyphen
ENCODING 45
SWIDTH 286 0
DWIDTH 4 0
BBX 4 1 0 4
BITMAP
2552
ENDCHAR
STARTCHAR period
ENCODING 46
SWIDTH 181 0
DWIDTH 3 0
BBX 1 2 1 0
BITMAP
20
40
ENDCHAR
STARTCHAR slash
ENCODING 47
SWIDTH 292 0
DWIDTH 4 0
BBX 4 12 0 -1
BITMAP
0004
0005
0014
0040
0050
0040
0410
0500
0400
3200
5000
4000
ENDCHAR
STARTCHAR zero
ENCODING 48
SWIDTH 378 0
DWIDTH 5 0
BBX 5 10 0 0
BITMAP
044500
050130
320040
500050
500050
500050
500050
320040
050130
044500
ENDCHAR
STARTCHAR one
ENCODING 49
SWIDTH 303 0
DWIDTH 4 0
BBX 4 10 0 0
BITMAP
2540
0040
0040
0040
0040
0040
0040
0040
0040
3484
ENDCHAR
STARTCHAR two
ENCODING 50
SWIDTH 343 0
DWIDTH 5 0
BBX 5 10 0 0
BITMAP
064500
210320
000130
000310
000500
004200
024000
060000
410000
644420
ENDCHAR
STARTCHAR three
ENCODING 51
SWIDTH 377 0
DWIDTH 5 0
BBX 5 10 0 0
BITMAP
044500
030230
000130
000310
023300
000040
000050
000050
100150
254500
ENDCHAR
STARTCHAR four
ENCODING 52
SWIDTH 389 0
DWIDTH 5 0
BBX 5 10 0 0
BITMAP
000400
002300
005000
014400
040400
050400
320400
455840
000400
000400
ENDCHAR
STARTCHAR five
ENCODING 53
SWIDTH 372 0
DWIDTH 5 0
BBX 5 11 0 0
BITMAP
000030
054400
040000
040000
040000
174400
330240
000050
000050
100050
154500
ENDCHAR
STARTCHAR six
ENCODING 54
SWIDTH 360 0
DWIDTH 5 0
BBX 5 10 0 0
BITMAP
003200
014000
050000
050000
334400
520140
500050
500050
230140
054600
ENDCHAR
STARTCHAR seven
ENCODING 55
SWIDTH 321 0
DWIDTH 5 0
BBX 4 10 0 0
BITMAP
3557
0004
0013
0040
0040
0040
0400
0400
0400
3100
ENDCHAR
STARTCHAR eight
ENCODING 56
SWIDTH 377 0
DWIDTH 5 0
BBX 5 10 0 0
BITMAP
054510
220050
310050
050320
027400
052700
320050
500050
410050
054510
ENDCHAR
STARTCHAR nine
ENCODING 57
SWIDTH 360 0
DWIDTH 5 0
BBX 5 10 0 0
BITMAP
054500
410220
500050
500050
310250
044340
000400
000500
004200
024000
ENDCHAR
STARTCHAR colon
ENCODING 58
SWIDTH 181 0
DWIDTH 3 0
BBX 1 7 1 0
BITMAP
20
40
00
00
00
20
40
ENDCHAR
STARTCHAR semicolon
ENCODING 59
SWIDTH 165 0
DWIDTH 2 0
BBX 2 9 0 -2
BITMAP
11
12
00
00
00
00
13
23
51
ENDCHAR
STARTCHAR less
ENCODING 60
SWIDTH 482 0
DWIDTH 7 0
BBX 6 6 0 0
BITMAP
000045
004510
171000
025200
000252
000002
ENDCHAR
STARTCHAR equal
ENCODING 61
SWIDTH 577 0
DWIDTH 8 0
BBX 8 3 0 2
BITMAP
15555551
00000000
15555551
ENDCHAR
STARTCHAR greater
ENCODING 62
SWIDTH 482 0
DWIDTH 7 0
BBX 6 6 0 1
BITMAP
110000
045100
000451
000027
002530
153000
ENDCHAR
STARTCHAR question
ENCODING 63
SWIDTH 300 0
DWIDTH 4 0
BBX 4 10 0 0
BITMAP
2561
2005
0014
0050
0140
0500
0500
0100
0200
0400
ENDCHAR
STARTCHAR at
ENCODING 64
SWIDTH 748 0
DWIDTH 10 0
BBX 10 10 0 0
BITMAP
0025445500
0340044060
0500324015
3100502004
5004132004
5005064004
3105181004
0504270050
0344435420
0025555530
ENDCHAR
STARTCHAR A
ENCODING 65
SWIDTH 414 0
DWIDTH 6 0
BBX 6 10 0 0
BITMAP
005200
004400
004400
021300
030120
055540
030030
310030
400013
400004
ENDCHAR
STARTCHAR B
ENCODING 66
SWIDTH 375 0
DWIDTH 5 0
BBX 5 10 0 0
BITMAP
264500
220320
220040
220040
254430
235710
220050
220050
220140
264500
ENDCHAR
STARTCHAR C
ENCODING 67
SWIDTH 366 0
DWIDTH 5 0
BBX 5 10 0 0
BITMAP
035430
050000
320000
500000
500000
500000
500000
320000
050000
035430
ENDCHAR
STARTCHAR D
ENCODING 68
SWIDTH 396 0
DWIDTH 6 0
BBX 5 10 0 0
BITMAP
264610
220050
220050
220050
220050
220050
220050
220050
220050
264610
ENDCHAR
STARTCHAR E
ENCODING 69
SWIDTH 309 0
DWIDTH 4 0
BBX 4 10 0 0
BITMAP
2643
2200
2200
2200
2642
2200
2200
2200
2200
2643
ENDCHAR
STARTCHAR F
ENCODING 70
SWIDTH 299 0
DWIDTH 4 0
BBX 4 10 0 0
BITMAP
2653
2200
2200
2200
2653
2200
2200
2200
2200
2200
ENDCHAR
STARTCHAR G
ENCODING 71
SWIDTH 382 0
DWIDTH 5 0
BBX 5 10 0 0
BITMAP
035430
050000
320000
500000
500000
500450
500040
320040
050040
035440
ENDCHAR
STARTCHAR H
ENCODING 72
SWIDTH 425 0
DWIDTH 6 0
BBX 6 10 0 0
BITMAP
220031
220032
220032
220032
264462
220032
220032
220032
220032
220031
ENDCHAR
STARTCHAR I
ENCODING 73
SWIDTH 141 0
DWIDTH 2 0
BBX 2 10 0 0
BITMAP
22
22
22
22
22
22
22
22
22
22
ENDCHAR
STARTCHAR J
ENCODING 74
SWIDTH 142 0
DWIDTH 2 0
BBX 4 13 -2 -3
BITMAP
0022
0022
0022
0022
0022
0022
0022
0022
0022
0022
0022
0040
1540
ENDCHAR
STARTCHAR K
ENCODING 75
SWIDTH 401 0
DWIDTH 6 0
BBX 5 10 0 0
BITMAP
040050
040410
040500
488200
582600
040230
040050
040050
040040
040040
ENDCHAR
STARTCHAR L
ENCODING 76
SWIDTH 347 0
DWIDTH 5 0
BBX 5 10 0 0
BITMAP
220000
220000
220000
220000
220000
220000
220000
220000
220000
264420
ENDCHAR
STARTCHAR M
ENCODING 77
SWIDTH 534 0
DWIDTH 7 0
BBX 7 10 0 0
BITMAP
07200630
04436140
04082040
04044040
04074040
13071040
22053040
31061040
40000040
40000040
ENDCHAR
STARTCHAR N
ENCODING 78
SWIDTH 422 0
DWIDTH 6 0
BBX 6 10 0 0
BITMAP
240031
270031
252031
225031
224031
221431
220531
220351
220081
220061
ENDCHAR
STARTCHAR O
ENCODING 79
SWIDTH 446 0
DWIDTH 6 0
BBX 6 10 0 0
BITMAP
035440
050032
320005
500005
500005
500005
500005
320005
050032
035440
ENDCHAR
STARTCHAR P
ENCODING 80
SWIDTH 341 0
DWIDTH 5 0
BBX 5 10 0 0
BITMAP
265500
220220
220050
220140
220500
275200
220000
220000
220000
220000
ENDCHAR
STARTCHAR Q
ENCODING 81
SWIDTH 446 0
DWIDTH 6 0
BBX 6 14 0 -4
BITMAP
035440
050032
320005
500005
500005
400004
540026
345244
053732
038840
004500
001700
004500
003500
ENDCHAR
STARTCHAR R
ENCODING 82
SWIDTH 380 0
DWIDTH 5 0
BBX 5 10 0 0
BITMAP
365500
320140
320050
662150
826800
566600
320410
320050
320050
310040
ENDCHAR
STARTCHAR S
ENCODING 83
SWIDTH 356 0
DWIDTH 5 0
BBX 5 10 0 0
BITMAP
054600
410120
400000
140000
034000
002400
000230
000050
400040
155610
ENDCHAR
STARTCHAR T
ENCODING 84
SWIDTH 377 0
DWIDTH 5 0
BBX 5 10 0 0
BITMAP
458550
004000
004000
004000
004000
004000
004000
004000
004000
004000
ENDCHAR
STARTCHAR U
ENCODING 85
SWIDTH 412 0
DWIDTH 6 0
BBX 6 10 0 0
BITMAP
400031
400031
400031
400031
400031
400031
400031
400031
220040
054430
ENDCHAR
STARTCHAR V
ENCODING 86
SWIDTH 384 0
DWIDTH 5 0
BBX 6 10 0 0
BITMAP
400031
500040
310040
040040
040320
040400
041400
014400
006200
007000
ENDCHAR
STARTCHAR W
ENCODING 87
SWIDTH 534 0
DWIDTH 7 0
BBX 7 10 0 0
BITMAP
40000040
40000040
31000040
22063040
13044040
04062040
04071040
04144040
04503340
07100530
ENDCHAR
STARTCHAR X
ENCODING 88
SWIDTH 318 0
DWIDTH 4 0
BBX 5 10 0 0
BITMAP
400400
130500
042200
045000
017000
036000
053100
140500
400500
400220
ENDCHAR
STARTCHAR Y
ENCODING 89
SWIDTH 370 0
DWIDTH 5 0
BBX 5 10 0 0
BITMAP
400040
410050
050410
050500
017300
006000
004000
004000
004000
004000
ENDCHAR
STARTCHAR Z
ENCODING 90
SWIDTH 309 0
DWIDTH 4 0
BBX 4 10 0 0
BITMAP
3447
0005
0022
0050
0040
0310
0500
0400
4100
7444
ENDCHAR
STARTCHAR bracketleft
ENCODING 91
SWIDTH 193 0
DWIDTH 3 0
BBX 3 13 0 -1
BITMAP
1530
2200
2200
2200
2200
2200
2200
2200
2200
2200
2200
2200
1530
ENDCHAR
STARTCHAR backslash
ENCODING 92
SWIDTH 292 0
DWIDTH 4 0
BBX 4 12 0 -1
BITMAP
4000
5000
3200
0500
0500
0410
0040
0050
0040
0014
0005
0004
ENDCHAR
STARTCHAR bracketright
ENCODING 93
SWIDTH 193 0
DWIDTH 3 0
BBX 2 13 0 -1
BITMAP
45
04
04
04
04
04
04
04
04
04
04
04
45
ENDCHAR
STARTCHAR asciicircum
ENCODING 94
SWIDTH 416 0
DWIDTH 6 0
BBX 6 6 0 4
BITMAP
003100
005500
032410
050050
230040
500004
ENDCHAR
STARTCHAR underscore
ENCODING 95
SWIDTH 556 0
DWIDTH 8 0
BBX 8 1 0 -1
BITMAP
24444441
ENDCHAR
STARTCHAR grave
ENCODING 96
SWIDTH 201 0
DWIDTH 3 0
BBX 1 2 1 8
BITMAP
20
50
ENDCHAR
STARTCHAR a
ENCODING 97
SWIDTH 315 0
DWIDTH 4 0
BBX 4 7 0 0
BITMAP
1561
1004
0004
0354
3204
5004
4556
ENDCHAR
STARTCHAR b
ENCODING 98
SWIDTH 298 0
DWIDTH 4 0
BBX 4 10 0 0
BITMAP
2200
2200
2200
2751
2204
2204
2205
2204
2204
2751
ENDCHAR
STARTCHAR c
ENCODING 99
SWIDTH 275 0
DWIDTH 4 0
BBX 4 7 0 0
BITMAP
0551
2202
5000
5000
4000
2202
0551
ENDCHAR
STARTCHAR d
ENCODING 100
SWIDTH 298 0
DWIDTH 4 0
BBX 4 10 0 0
BITMAP
0004
0004
0004
0555
3104
4004
5004
4004
3104
0554
ENDCHAR
STARTCHAR e
ENCODING 101
SWIDTH 285 0
DWIDTH 4 0
BBX 4 7 0 0
BITMAP
0551
2104
4443
5000
5000
2303
0551
ENDCHAR
STARTCHAR f
ENCODING 102
SWIDTH 178 0
DWIDTH 2 0
BBX 4 10 0 0
BITMAP
0451
0500
0400
4820
0400
0400
0400
0400
0400
0400
ENDCHAR
STARTCHAR g
ENCODING 103
SWIDTH 302 0
DWIDTH 4 0
BBX 5 11 0 -3
BITMAP
000200
067200
230400
400400
310500
141400
175000
340000
414510
400140
455600
ENDCHAR
STARTCHAR h
ENCODING 104
SWIDTH 307 0
DWIDTH 4 0
BBX 4 10 0 0
BITMAP
2200
2200
2200
2753
2304
2204
2204
2204
2204
2204
ENDCHAR
STARTCHAR i
ENCODING 105
SWIDTH 141 0
DWIDTH 2 0
BBX 2 10 0 0
BITMAP
22
22
00
22
22
22
22
22
22
22
ENDCHAR
STARTCHAR j
ENCODING 106
SWIDTH 141 0
DWIDTH 2 0
BBX 3 13 -1 -3
BITMAP
0220
0220
0000
0220
0220
0220
0220
0220
0220
0220
0220
0410
5400
ENDCHAR
STARTCHAR k
ENCODING 107
SWIDTH 287 0
DWIDTH 4 0
BBX 4 10 0 0
BITMAP
2200
2200
2200
2203
2250
2540
2550
2250
2214
2205
ENDCHAR
STARTCHAR l
ENCODING 108
SWIDTH 141 0
DWIDTH 2 0
BBX 2 10 0 0
BITMAP
22
22
22
22
22
22
22
22
22
22
ENDCHAR
STARTCHAR m
ENCODING 109
SWIDTH 407 0
DWIDTH 6 0
BBX 5 7 0 0
BITMAP
271290
226540
225440
225440
223240
220040
220040
ENDCHAR
STARTCHAR n
ENCODING 110
SWIDTH 307 0
DWIDTH 4 0
BBX 4 7 0 0
BITMAP
2753
2304
2204
2204
2204
2204
2204
ENDCHAR
STARTCHAR o
ENCODING 111
SWIDTH 309 0
DWIDTH 4 0
BBX 4 7 0 0
BITMAP
0551
2204
5004
5005
4004
2204
0551
ENDCHAR
STARTCHAR p
ENCODING 112
SWIDTH 299 0
DWIDTH 4 0
BBX 4 11 0 -3
BITMAP
1100
5651
2204
2205
2205
2204
2204
2751
2200
2200
2200
ENDCHAR
STARTCHAR q
ENCODING 113
SWIDTH 286 0
DWIDTH 4 0
BBX 4 10 0 -3
BITMAP
0664
3105
5004
5004
5004
3104
0665
0004
0004
0006
ENDCHAR
STARTCHAR r
ENCODING 114
SWIDTH 277 0
DWIDTH 4 0
BBX 4 7 0 0
BITMAP
2653
2203
2200
2200
2200
2200
2200
ENDCHAR
STARTCHAR s
ENCODING 115
SWIDTH 257 0
DWIDTH 4 0
BBX 4 7 0 0
BITMAP
2550
5000
2300
0430
0051
3023
3560
ENDCHAR
STARTCHAR t
ENCODING 116
SWIDTH 207 0
DWIDTH 3 0
BBX 3 9 0 0
BITMAP
0400
0400
4820
0400
0400
0400
0400
0400
0520
ENDCHAR
STARTCHAR u
ENCODING 117
SWIDTH 307 0
DWIDTH 4 0
BBX 4 7 0 0
BITMAP
4004
4004
4004
4004
4004
4005
1545
ENDCHAR
STARTCHAR v
ENCODING 118
SWIDTH 285 0
DWIDTH 4 0
BBX 4 7 0 0
BITMAP
4004
4004
3222
0440
0440
0540
0330
ENDCHAR
STARTCHAR w
ENCODING 119
SWIDTH 396 0
DWIDTH 6 0
BBX 6 7 0 0
BITMAP
400031
504140
505450
406350
317150
244650
170260
ENDCHAR
STARTCHAR x
ENCODING 120
SWIDTH 244 0
DWIDTH 3 0
BBX 4 7 0 0
BITMAP
4040
1350
0720
0700
0540
3150
4041
ENDCHAR
STARTCHAR y
ENCODING 121
SWIDTH 285 0
DWIDTH 4 0
BBX 4 10 0 -3
BITMAP
4004
4004
3113
0440
0540
0440
0440
0410
0400
4400
ENDCHAR
STARTCHAR z
ENCODING 122
SWIDTH 233 0
DWIDTH 3 0
BBX 3 7 0 0
BITMAP
2470
0040
0220
0400
0400
3100
6440
ENDCHAR
STARTCHAR braceleft
ENCODING 123
SWIDTH 306 0
DWIDTH 4 0
BBX 5 13 0 -1
BITMAP
002510
004000
004000
004000
004000
004000
355000
355000
004000
004000
004000
004000
003510
ENDCHAR
STARTCHAR bar
ENCODING 124
SWIDTH 141 0
DWIDTH 2 0
BBX 2 12 0 -1
BITMAP
22
22
22
22
22
22
22
22
22
22
22
22
ENDCHAR
STARTCHAR braceright
ENCODING 125
SWIDTH 306 0
DWIDTH 4 0
BBX 4 13 0 -1
BITMAP
4400
0400
0400
0400
0400
0400
0355
0454
0400
0400
0400
0400
4400
ENDCHAR
STARTCHAR asciitilde
ENCODING 126
SWIDTH 433 0
DWIDTH 6 0
BBX 6 2 0 3
BITMAP
155003
300551
ENDCHAR
STARTCHAR uni00A0
ENCODING 160
SWIDTH 240 0
DWIDTH 3 0
BBX 1 1 0 0
BITMAP
00
ENDCHAR
STARTCHAR exclamdown
ENCODING 161
SWIDTH 141 0
DWIDTH 2 0
BBX 2 10 0 -2
BITMAP
22
11
10
32
32
32
32
32
32
22
ENDCHAR
STARTCHAR cent
ENCODING 162
SWIDTH 275 0
DWIDTH 4 0
BBX 4 10 0 -1
BITMAP
0020
0140
0691
3342
4140
5140
4140
1553
0470
0140
ENDCHAR
STARTCHAR sterling
ENCODING 163
SWIDTH 331 0
DWIDTH 5 0
BBX 5 10 0 0
BITMAP
154500
500200
500000
410000
050000
285200
032000
041000
050000
754410
ENDCHAR
STARTCHAR currency
ENCODING 164
SWIDTH 506 0
DWIDTH 7 0
BBX 7 6 0 2
BITMAP
11000120
05555600
05000500
05000500
05101500
15455510
ENDCHAR
STARTCHAR yen
ENCODING 165
SWIDTH 370 0
DWIDTH 5 0
BBX 5 10 0 0
BITMAP
400040
410050
050410
050500
016300
007000
148410
148410
004000
004000
ENDCHAR
STARTCHAR brokenbar
ENCODING 166
SWIDTH 141 0
DWIDTH 2 0
BBX 2 12 0 -1
BITMAP
22
22
22
22
22
00
00
22
22
22
22
22
ENDCHAR
STARTCHAR section
ENCODING 167
SWIDTH 303 0
DWIDTH 4 0
BBX 4 13 0 -1
BITMAP
0551
4005
5000
4300
0750
1CE5
6318
2002
0321
0034
0005
4005
1551
ENDCHAR
STARTCHAR dieresis
ENCODING 168
SWIDTH 241 0
DWIDTH 3 0
BBX 3 2 0 8
BITMAP
2230
2240
ENDCHAR
STARTCHAR copyright
ENCODING 169
SWIDTH 772 0
DWIDTH 11 0
BBX 11 11 0 0
BITMAP
000354520000
005200035000
050035202400
140050000500
400130000320
500220000130
400130000320
140050000500
050035202400
005200034000
000354520000
ENDCHAR
STARTCHAR ordfeminine
ENCODING 170
SWIDTH 231 0
DWIDTH 3 0
BBX 3 5 0 5
BITMAP
3530
0040
1650
5040
4560
ENDCHAR
STARTCHAR guillemotleft
ENCODING 171
SWIDTH 403 0
DWIDTH 6 0
BBX 5 6 0 1
BITMAP
003030
023330
152400
333200
042410
005050
ENDCHAR
STARTCHAR logicalnot
ENCODING 172
SWIDTH 557 0
DWIDTH 8 0
BBX 8 3 0 2
BITMAP
25555552
00000014
00000002
ENDCHAR
STARTCHAR uni00AD
ENCODING 173
SWIDTH 286 0
DWIDTH 4 0
BBX 4 1 0 4
BITMAP
2552
ENDCHAR
STARTCHAR registered
ENCODING 174
SWIDTH 772 0
DWIDTH 11 0
BBX 11 11 0 0
BITMAP
000354520000
005200035000
050055102400
140040500500
400040500320
500066200130
400040500320
140040500500
050030302400
005200034000
000354520000
ENDCHAR
STARTCHAR macron
ENCODING 175
SWIDTH 266 0
DWIDTH 4 0
BBX 2 1 1 8
BITMAP
54
ENDCHAR
STARTCHAR degree
ENCODING 176
SWIDTH 350 0
DWIDTH 5 0
BBX 5 4 0 6
BITMAP
044300
220410
230410
044300
ENDCHAR
STARTCHAR plusminus
ENCODING 177
SWIDTH 577 0
DWIDTH 8 0
BBX 8 7 0 0
BITMAP
00013000
00023000
14466441
00023000
00023000
00012000
14444441
ENDCHAR
STARTCHAR uni00B2
ENCODING 178
SWIDTH 207 0
DWIDTH 3 0
BBX 3 5 0 5
BITMAP
3530
0040
0510
1400
6420
ENDCHAR
STARTCHAR uni00B3
ENCODING 179
SWIDTH 214 0
DWIDTH 3 0
BBX 3 5 0 5
BITMAP
3620
0230
0610
0050
3530
ENDCHAR
STARTCHAR acute
ENCODING 180
SWIDTH 201 0
DWIDTH 3 0
BBX 2 2 0 8
BITMAP
03
14
ENDCHAR
STARTCHAR uni00B5
ENCODING 181
SWIDTH 335 0
DWIDTH 5 0
BBX 5 10 0 -3
BITMAP
220400
220400
220400
220400
220400
220500
265710
220000
220000
220000
ENDCHAR
STARTCHAR paragraph
ENCODING 182
SWIDTH 471 0
DWIDTH 7 0
BBX 6 10 0 0
BITMAP
05DF54
0EFF54
2FFF54
0EFF54
05EF54
000144
000044
000044
000044
000044
ENDCHAR
STARTCHAR periodcentered
ENCODING 183
SWIDTH 181 0
DWIDTH 3 0
BBX 1 2 1 4
BITMAP
20
40
ENDCHAR
STARTCHAR cedilla
ENCODING 184
SWIDTH 232 0
DWIDTH 3 0
BBX 3 3 0 -3
BITMAP
0100
0010
1520
ENDCHAR
STARTCHAR uni00B9
ENCODING 185
SWIDTH 176 0
DWIDTH 2 0
BBX 3 5 0 5
BITMAP
3500
0400
0400
0400
3810
ENDCHAR
STARTCHAR ordmasculine
ENCODING 186
SWIDTH 201 0
DWIDTH 3 0
BBX 3 5 0 5
BITMAP
3610
4040
4040
4040
3610
ENDCHAR
STARTCHAR guillemotright
ENCODING 187
SWIDTH 403 0
DWIDTH 6 0
BBX 5 6 0 1
BITMAP
233200
042420
005060
006050
050500
213100
ENDCHAR
STARTCHAR onequarter
ENCODING 188
SWIDTH 527 0
DWIDTH 7 0
BBX 7 10 0 0
BITMAP
17000220
04000500
04002300
04005000
18214000
00050400
00141400
00505400
01405830
04000400
ENDCHAR
STARTCHAR onehalf
ENCODING 189
SWIDTH 540 0
DWIDTH 8 0
BBX 7 10 0 0
BITMAP
17000220
04000500
04002300
04005000
18214000
00050650
00140050
00500140
01400500
04001730
ENDCHAR
STARTCHAR threequarters
ENCODING 190
SWIDTH 517 0
DWIDTH 7 0
BBX 7 10 0 0
BITMAP
36200220
02300500
06102300
00505000
35314000
00050400
00140500
00504410
01404740
04000310
ENDCHAR
STARTCHAR questiondown
ENCODING 191
SWIDTH 300 0
DWIDTH 4 0
BBX 4 10 0 -2
BITMAP
0040
0020
0010
0050
0050
0230
0500
1400
3202
0653
ENDCHAR
STARTCHAR Agrave
ENCODING 192
SWIDTH 414 0
DWIDTH 6 0
BBX 6 12 0 0
BITMAP
005000
002000
005200
004400
004400
021300
030120
055540
030030
310030
400013
400004
ENDCHAR
STARTCHAR Aacute
ENCODING 193
SWIDTH 414 0
DWIDTH 6 0
BBX 6 12 0 0
BITMAP
000500
000100
005200
004400
004400
021300
030120
055540
030030
310030
400013
400004
ENDCHAR
STARTCHAR Acircumflex
ENCODING 194
SWIDTH 414 0
DWIDTH 6 0
BBX 6 12 0 0
BITMAP
003200
004400
005200
004400
004400
021300
030120
055540
030030
310030
400013
400004
ENDCHAR
STARTCHAR Atilde
ENCODING 195
SWIDTH 414 0
DWIDTH 6 0
BBX 6 13 0 0
BITMAP
015200
021500
000000
005200
004400
004400
021300
030120
055540
030030
310030
400013
400004
ENDCHAR
STARTCHAR Adieresis
ENCODING 196
SWIDTH 414 0
DWIDTH 6 0
BBX 6 12 0 0
BITMAP
004400
001100
005200
004400
004400
021300
030120
055540
030030
310030
400013
400004
ENDCHAR
STARTCHAR Aring
ENCODING 197
SWIDTH 414 0
DWIDTH 6 0
BBX 6 12 0 0
BITMAP
004300
004300
005200
004400
004400
021300
030120
055540
030030
310030
400013
400004
ENDCHAR
STARTCHAR AE
ENCODING 198
SWIDTH 545 0
DWIDTH 8 0
BBX 7 10 0 0
BITMAP
00018440
00044000
00034000
00214000
00207440
01545000
02004000
03004000
31004000
40007440
ENDCHAR
STARTCHAR Ccedilla
ENCODING 199
SWIDTH 366 0
DWIDTH 5 0
BBX 5 13 0 -3
BITMAP
035430
050000
320000
500000
500000
500000
500000
320000
050000
035430
000100
002000
003400
ENDCHAR
STARTCHAR Egrave
ENCODING 200
SWIDTH 309 0
DWIDTH 4 0
BBX 4 12 0 0
BITMAP
0410
0020
2643
2200
2200
2200
2642
2200
2200
2200
2200
2643
ENDCHAR
STARTCHAR Eacute
ENCODING 201
SWIDTH 309 0
DWIDTH 4 0
BBX 4 12 0 0
BITMAP
0031
0020
2643
2200
2200
2200
2642
2200
2200
2200
2200
2643
ENDCHAR
STARTCHAR Ecircumflex
ENCODING 202
SWIDTH 309 0
DWIDTH 4 0
BBX 4 12 0 0
BITMAP
0140
0331
2643
2200
2200
2200
2642
2200
2200
2200
2200
2643
ENDCHAR
STARTCHAR Edieresis
ENCODING 203
SWIDTH 309 0
DWIDTH 4 0
BBX 4 12 0 0
BITMAP
0431
0110
2643
2200
2200
2200
2642
2200
2200
2200
2200
2643
ENDCHAR
STARTCHAR Igrave
ENCODING 204
SWIDTH 141 0
DWIDTH 2 0
BBX 2 12 0 0
BITMAP
50
10
22
22
22
22
22
22
22
22
22
22
ENDCHAR
STARTCHAR Iacute
ENCODING 205
SWIDTH 141 0
DWIDTH 2 0
BBX 2 12 0 0
BITMAP
05
02
22
22
22
22
22
22
22
22
22
22
ENDCHAR
STARTCHAR Icircumflex
ENCODING 206
SWIDTH 141 0
DWIDTH 2 0
BBX 2 12 0 0
BITMAP
32
44
22
22
22
22
22
22
22
22
22
22
ENDCHAR
STARTCHAR Idieresis
ENCODING 207
SWIDTH 141 0
DWIDTH 2 0
BBX 2 12 0 0
BITMAP
44
11
22
22
22
22
22
22
22
22
22
22
ENDCHAR
STARTCHAR Eth
ENCODING 208
SWIDTH 396 0
DWIDTH 6 0
BBX 5 10 0 0
BITMAP
264610
220050
220050
220050
220050
563050
220050
220050
220050
264610
ENDCHAR
STARTCHAR Ntilde
ENCODING 209
SWIDTH 422 0
DWIDTH 6 0
BBX 6 13 0 0
BITMAP
015210
021600
000000
240031
270031
252031
225031
224031
221431
220531
220351
220081
220061
ENDCHAR
STARTCHAR Ograve
ENCODING 210
SWIDTH 446 0
DWIDTH 6 0
BBX 6 12 0 0
BITMAP
005000
001100
035440
050032
320005
500005
500005
500005
500005
320005
050032
035440
ENDCHAR
STARTCHAR Oacute
ENCODING 211
SWIDTH 446 0
DWIDTH 6 0
BBX 6 12 0 0
BITMAP
000500
000200
035440
050032
320005
500005
500005
500005
500005
320005
050032
035440
ENDCHAR
STARTCHAR Ocircumflex
ENCODING 212
SWIDTH 446 0
DWIDTH 6 0
BBX 6 12 0 0
BITMAP
002300
004400
035440
050032
320005
500005
500005
500005
500005
320005
050032
035440
ENDCHAR
STARTCHAR Otilde
ENCODING 213
SWIDTH 446 0
DWIDTH 6 0
BBX 6 13 0 0
BITMAP
005120
002510
000000
035440
050032
320005
500005
500005
500005
500005
320005
050032
035440
ENDCHAR
STARTCHAR Odieresis
ENCODING 214
SWIDTH 446 0
DWIDTH 6 0
BBX 6 12 0 0
BITMAP
004400
001100
035440
050032
320005
500005
500005
500005
500005
320005
050032
035440
ENDCHAR
STARTCHAR multiply
ENCODING 215
SWIDTH 445 0
DWIDTH 6 0
BBX 6 5 0 1
BITMAP
050024
015240
003800
024150
140013
ENDCHAR
STARTCHAR Oslash
ENCODING 216
SWIDTH 446 0
DWIDTH 6 0
BBX 6 10 0 0
BITMAP
035453
050071
320045
500405
500505
503105
505005
343005
080042
165440
ENDCHAR
STARTCHAR Ugrave
ENCODING 217
SWIDTH 412 0
DWIDTH 6 0
BBX 6 12 0 0
BITMAP
005000
002000
400031
400031
400031
400031
400031
400031
400031
400031
220040
054430
ENDCHAR
STARTCHAR Uacute
ENCODING 218
SWIDTH 412 0
DWIDTH 6 0
BBX 6 12 0 0
BITMAP
000500
001100
400031
400031
400031
400031
400031
400031
400031
400031
220040
054430
ENDCHAR
STARTCHAR Ucircumflex
ENCODING 219
SWIDTH 412 0
DWIDTH 6 0
BBX 6 12 0 0
BITMAP
003200
003400
400031
400031
400031
400031
400031
400031
400031
400031
220040
054430
ENDCHAR
STARTCHAR Udieresis
ENCODING 220
SWIDTH 412 0
DWIDTH 6 0
BBX 6 12 0 0
BITMAP
004400
001100
400031
400031
400031
400031
400031
400031
400031
400031
220040
054430
ENDCHAR
STARTCHAR Yacute
ENCODING 221
SWIDTH 370 0
DWIDTH 5 0
BBX 5 12 0 0
BITMAP
001400
002000
400040
410050
050410
050500
017300
006000
004000
004000
004000
004000
ENDCHAR
STARTCHAR Thorn
ENCODING 222
SWIDTH 341 0
DWIDTH 5 0
BBX 5 10 0 0
BITMAP
220000
264300
220410
220040
220140
220510
264200
220000
220000
220000
ENDCHAR
STARTCHAR germandbls
ENCODING 223
SWIDTH 327 0
DWIDTH 5 0
BBX 4 10 0 0
BITMAP
0542
1304
2204
2454
2455
2204
2205
2204
2204
2442
ENDCHAR
STARTCHAR agrave
ENCODING 224
SWIDTH 315 0
DWIDTH 4 0
BBX 4 10 0 0
BITMAP
0300
0230
0000
1561
1004
0004
0354
3204
5004
4556
ENDCHAR
STARTCHAR aacute
ENCODING 225
SWIDTH 315 0
DWIDTH 4 0
BBX 4 10 0 0
BITMAP
0030
0050
0000
1561
1004
0004
0354
3204
5004
4556
ENDCHAR
STARTCHAR acircumflex
ENCODING 226
SWIDTH 315 0
DWIDTH 4 0
BBX 4 10 0 0
BITMAP
0360
0321
0000
1561
1004
0004
0354
3204
5004
4556
ENDCHAR
STARTCHAR atilde
ENCODING 227
SWIDTH 315 0
DWIDTH 4 0
BBX 4 10 0 0
BITMAP
0512
0252
0000
1561
1004
0004
0354
3204
5004
4556
ENDCHAR
STARTCHAR adieresis
ENCODING 228
SWIDTH 315 0
DWIDTH 4 0
BBX 4 10 0 0
BITMAP
0330
0440
0000
1561
1004
0004
0354
3204
5004
4556
ENDCHAR
STARTCHAR aring
ENCODING 229
SWIDTH 315 0
DWIDTH 4 0
BBX 4 9 0 0
BITMAP
0340
0340
1561
1004
0004
0354
3204
5004
4556
ENDCHAR
STARTCHAR ae
ENCODING 230
SWIDTH 450 0
DWIDTH 6 0
BBX 6 7 0 0
BITMAP
165343
100705
000604
034745
420500
500502
345544
ENDCHAR
STARTCHAR ccedilla
ENCODING 231
SWIDTH 275 0
DWIDTH 4 0
BBX 4 10 0 -3
BITMAP
0551
2202
5000
5000
4000
2202
0551
0010
0100
0340
ENDCHAR
STARTCHAR egrave
ENCODING 232
SWIDTH 285 0
DWIDTH 4 0
BBX 4 10 0 0
BITMAP
0300
0230
0000
0551
2104
4443
5000
5000
2303
0551
ENDCHAR
STARTCHAR eacute
ENCODING 233
SWIDTH 285 0
DWIDTH 4 0
BBX 4 10 0 0
BITMAP
0030
0050
0000
0551
2104
4443
5000
5000
2303
0551
ENDCHAR
STARTCHAR ecircumflex
ENCODING 234
SWIDTH 285 0
DWIDTH 4 0
BBX 4 10 0 0
BITMAP
0360
0321
0000
0551
2104
4443
5000
5000
2303
0551
ENDCHAR
STARTCHAR edieresis
ENCODING 235
SWIDTH 285 0
DWIDTH 4 0
BBX 4 10 0 0
BITMAP
0330
0440
0000
0551
2104
4443
5000
5000
2303
0551
ENDCHAR
STARTCHAR igrave
ENCODING 236
SWIDTH 141 0
DWIDTH 2 0
BBX 2 10 0 0
BITMAP
30
41
00
22
22
22
22
22
22
22
ENDCHAR
STARTCHAR iacute
ENCODING 237
SWIDTH 141 0
DWIDTH 2 0
BBX 2 10 0 0
BITMAP
03
14
00
22
22
22
22
22
22
22
ENDCHAR
STARTCHAR icircumflex
ENCODING 238
SWIDTH 141 0
DWIDTH 2 0
BBX 2 10 0 0
BITMAP
44
33
00
22
22
22
22
22
22
22
ENDCHAR
STARTCHAR idieresis
ENCODING 239
SWIDTH 141 0
DWIDTH 2 0
BBX 2 10 0 0
BITMAP
33
44
00
22
22
22
22
22
22
22
ENDCHAR
STARTCHAR eth
ENCODING 240
SWIDTH 319 0
DWIDTH 4 0
BBX 4 10 0 0
BITMAP
0500
0383
0122
0546
2205
5005
5005
5004
2205
0552
ENDCHAR
STARTCHAR ntilde
ENCODING 241
SWIDTH 307 0
DWIDTH 4 0
BBX 4 10 0 0
BITMAP
0512
0252
0000
2753
2304
2204
2204
2204
2204
2204
ENDCHAR
STARTCHAR ograve
ENCODING 242
SWIDTH 309 0
DWIDTH 4 0
BBX 4 10 0 0
BITMAP
0300
0230
0000
0551
2204
5004
5005
4004
2204
0551
ENDCHAR
STARTCHAR oacute
ENCODING 243
SWIDTH 309 0
DWIDTH 4 0
BBX 4 10 0 0
BITMAP
0030
0050
0000
0551
2204
5004
5005
4004
2204
0551
ENDCHAR
STARTCHAR ocircumflex
ENCODING 244
SWIDTH 309 0
DWIDTH 4 0
BBX 4 10 0 0
BITMAP
0360
0321
0000
0551
2204
5004
5005
4004
2204
0551
ENDCHAR
STARTCHAR otilde
ENCODING 245
SWIDTH 309 0
DWIDTH 4 0
BBX 4 10 0 0
BITMAP
0512
0252
0000
0551
2204
5004
5005
4004
2204
0551
ENDCHAR
STARTCHAR odieresis
ENCODING 246
SWIDTH 309 0
DWIDTH 4 0
BBX 4 10 0 0
BITMAP
0330
0440
0000
0551
2204
5004
5005
4004
2204
0551
ENDCHAR
STARTCHAR divide
ENCODING 247
SWIDTH 577 0
DWIDTH 8 0
BBX 8 7 0 0
BITMAP
00013000
00011000
00000000
14444441
00000000
00011000
00013000
ENDCHAR
STARTCHAR oslash
ENCODING 248
SWIDTH 309 0
DWIDTH 4 0
BBX 4 7 0 0
BITMAP
0555
2236
5054
5145
4404
2604
3651
ENDCHAR
STARTCHAR ugrave
ENCODING 249
SWIDTH 307 0
DWIDTH 4 0
BBX 4 10 0 0
BITMAP
0300
0230
0000
4004
4004
4004
4004
4004
4005
1545
ENDCHAR
STARTCHAR uacute
ENCODING 250
SWIDTH 307 0
DWIDTH 4 0
BBX 4 10 0 0
BITMAP
0030
0050
0000
4004
4004
4004
4004
4004
4005
1545
ENDCHAR
STARTCHAR ucircumflex
ENCODING 251
SWIDTH 307 0
DWIDTH 4 0
BBX 4 10 0 0
BITMAP
0360
0321
0000
4004
4004
4004
4004
4004
4005
1545
ENDCHAR
STARTCHAR udieresis
ENCODING 252
SWIDTH 307 0
DWIDTH 4 0
BBX 4 10 0 0
BITMAP
0330
0440
0000
4004
4004
4004
4004
4004
4005
1545
ENDCHAR
STARTCHAR yacute
ENCODING 253
SWIDTH 285 0
DWIDTH 4 0
BBX 4 13 0 -3
BITMAP
0030
0140
0000
4004
4004
3113
0440
0540
0440
0440
0410
0400
4400
ENDCHAR
STARTCHAR thorn
ENCODING 254
SWIDTH 299 0
DWIDTH 4 0
BBX 4 13 0 -3
BITMAP
2200
2200
2200
5651
2204
2205
2205
2204
2204
2751
2200
2200
2200
ENDCHAR
STARTCHAR ydieresis
ENCODING 255
SWIDTH 285 0
DWIDTH 4 0
BBX 4 13 0 -3
BITMAP
0330
0440
0000
4004
4004
3113
0440
0540
0440
0440
0410
0400
4400
ENDCHAR
STARTCHAR dotlessi
ENCODING 305
SWIDTH 141 0
DWIDTH 2 0
BBX 2 7 0 0
BITMAP
22
22
22
22
22
22
22
ENDCHAR
STARTCHAR OE
ENCODING 338
SWIDTH 505 0
DWIDTH 7 0
BBX 7 10 0 0
BITMAP
03584420
06040000
32040000
50040000
50054410
50040000
50040000
32040000
05040000
03584420
ENDCHAR
STARTCHAR oe
ENCODING 339
SWIDTH 492 0
DWIDTH 7 0
BBX 7 7 0 0
BITMAP
05525500
22091040
50084430
50060000
40080000
22061030
05415510
ENDCHAR
STARTCHAR Wcircumflex
ENCODING 372
SWIDTH 534 0
DWIDTH 7 0
BBX 7 12 0 0
BITMAP
00041000
00134000
40000040
40000040
31000040
22063040
13044040
04062040
04071040
04144040
04503340
07100530
ENDCHAR
STARTCHAR wcircumflex
ENCODING 373
SWIDTH 396 0
DWIDTH 6 0
BBX 6 10 0 0
BITMAP
006300
021300
000000
400031
504140
505450
406350
317150
244650
170260
ENDCHAR
STARTCHAR Ycircumflex
ENCODING 374
SWIDTH 370 0
DWIDTH 5 0
BBX 5 12 0 0
BITMAP
005000
022300
400040
410050
050410
050500
017300
006000
004000
004000
004000
004000
ENDCHAR
STARTCHAR ycircumflex
ENCODING 375
SWIDTH 285 0
DWIDTH 4 0
BBX 4 13 0 -3
BITMAP
0450
0330
0000
4004
4004
3113
0440
0540
0440
0440
0410
0400
4400
ENDCHAR
STARTCHAR Ydieresis
ENCODING 376
SWIDTH 370 0
DWIDTH 5 0
BBX 5 12 0 0
BITMAP
032400
010100
400040
410050
050410
050500
017300
006000
004000
004000
004000
004000
ENDCHAR
STARTCHAR uni0237
ENCODING 567
SWIDTH 141 0
DWIDTH 2 0
BBX 3 10 -1 -3
BITMAP
0220
0220
0220
0220
0220
0220
0220
0220
0410
5400
ENDCHAR
STARTCHAR circumflex
ENCODING 710
SWIDTH 280 0
DWIDTH 4 0
BBX 2 2 1 8
BITMAP
54
33
ENDCHAR
STARTCHAR ring
ENCODING 730
SWIDTH 238 0
DWIDTH 3 0
BBX 2 2 1 7
BITMAP
52
52
ENDCHAR
STARTCHAR tilde
ENCODING 732
SWIDTH 301 0
DWIDTH 4 0
BBX 4 2 0 8
BITMAP
0612
1151
ENDCHAR
STARTCHAR gravecomb
ENCODING 768
SWIDTH 0 0
DWIDTH 0 0
BBX 1 2 1 8
BITMAP
20
50
ENDCHAR
STARTCHAR acutecomb
ENCODING 769
SWIDTH 0 0
DWIDTH 0 0
BBX 2 2 0 8
BITMAP
03
14
ENDCHAR
STARTCHAR uni0302
ENCODING 770
SWIDTH 0 0
DWIDTH 0 0
BBX 2 2 1 8
BITMAP
54
33
ENDCHAR
STARTCHAR tildecomb
ENCODING 771
SWIDTH 0 0
DWIDTH 0 0
BBX 4 2 0 8
BITMAP
0612
1151
ENDCHAR
STARTCHAR uni0307
ENCODING 775
SWIDTH 0 0
DWIDTH 0 0
BBX 2 2 0 8
BITMAP
22
22
ENDCHAR
STARTCHAR uni0308
ENCODING 776
SWIDTH 0 0
DWIDTH 0 0
BBX 3 2 0 8
BITMAP
2230
2240
ENDCHAR
STARTCHAR uni030A
ENCODING 778
SWIDTH 0 0
DWIDTH 0 0
BBX 2 2 1 7
BITMAP
52
52
ENDCHAR
STARTCHAR uni0327
ENCODING 807
SWIDTH 0 0
DWIDTH 0 0
BBX 3 3 0 -3
BITMAP
0100
0010
1520
ENDCHAR
STARTCHAR Wgrave
ENCODING 7808
SWIDTH 534 0
DWIDTH 7 0
BBX 7 12 0 0
BITMAP
00040000
00020000
40000040
40000040
31000040
22063040
13044040
04062040
04071040
04144040
04503340
07100530
ENDCHAR
STARTCHAR wgrave
ENCODING 7809
SWIDTH 396 0
DWIDTH 6 0
BBX 6 10 0 0
BITMAP
003000
005000
000000
400031
504140
505450
406350
317150
244650
170260
ENDCHAR
STARTCHAR Wacute
ENCODING 7810
SWIDTH 534 0
DWIDTH 7 0
BBX 7 12 0 0
BITMAP
00004000
00010000
40000040
40000040
31000040
22063040
13044040
04062040
04071040
04144040
04503340
07100530
ENDCHAR
STARTCHAR wacute
ENCODING 7811
SWIDTH 396 0
DWIDTH 6 0
BBX 6 10 0 0
BITMAP
000300
003200
000000
400031
504140
505450
406350
317150
244650
170260
ENDCHAR
STARTCHAR Wdieresis
ENCODING 7812
SWIDTH 534 0
DWIDTH 7 0
BBX 7 12 0 0
BITMAP
00144000
00011000
40000040
40000040
31000040
22063040
13044040
04062040
04071040
04144040
04503340
07100530
ENDCHAR
STARTCHAR wdieresis
ENCODING 7813
SWIDTH 396 0
DWIDTH 6 0
BBX 6 10 0 0
BITMAP
013300
013400
000000
400031
504140
505450
406350
317150
244650
170260
ENDCHAR
STARTCHAR uni1E9E
ENCODING 7838
SWIDTH 375 0
DWIDTH 5 0
BBX 5 10 0 0
BITMAP
054500
130320
220320
234700
234620
220040
220040
220040
220220
244400
ENDCHAR
STARTCHAR Ygrave
ENCODING 7922
SWIDTH 370 0
DWIDTH 5 0
BBX 5 12 0 0
BITMAP
013000
002000
400040
410050
050410
050500
017300
006000
004000
004000
004000
004000
ENDCHAR
STARTCHAR ygrave
ENCODING 7923
SWIDTH 285 0
DWIDTH 4 0
BBX 4 13 0 -3
BITMAP
0300
0410
0000
4004
4004
3113
0440
0540
0440
0440
0410
0400
4400
ENDCHAR
STARTCHAR endash
ENCODING 8211
SWIDTH 425 0
DWIDTH 6 0
BBX 6 1 0 3
BITMAP
244441
ENDCHAR
STARTCHAR emdash
ENCODING 8212
SWIDTH 770 0
DWIDTH 11 0
BBX 11 1 0 3
BITMAP
244444444410
ENDCHAR
STARTCHAR quoteleft
ENCODING 8216
SWIDTH 145 0
DWIDTH 2 0
BBX 2 3 0 7
BITMAP
24
40
40
ENDCHAR
STARTCHAR quoteright
ENCODING 8217
SWIDTH 145 0
DWIDTH 2 0
BBX 2 3 0 7
BITMAP
04
04
32
ENDCHAR
STARTCHAR quotesinglbase
ENCODING 8218
SWIDTH 145 0
DWIDTH 2 0
BBX 2 3 0 -2
BITMAP
13
23
51
ENDCHAR
STARTCHAR quotedblleft
ENCODING 8220
SWIDTH 219 0
DWIDTH 3 0
BBX 3 3 0 7
BITMAP
2540
4410
4400
ENDCHAR
STARTCHAR quotedblright
ENCODING 8221
SWIDTH 219 0
DWIDTH 3 0
BBX 3 3 0 7
BITMAP
0440
0440
3520
ENDCHAR
STARTCHAR quotedblbase
ENCODING 8222
SWIDTH 219 0
DWIDTH 3 0
BBX 3 3 0 -2
BITMAP
1430
2430
5510
ENDCHAR
STARTCHAR bullet
ENCODING 8226
SWIDTH 355 0
DWIDTH 5 0
BBX 5 4 0 3
BITMAP
08E800
1FFF10
0DFD00
026200
ENDCHAR
STARTCHAR ellipsis
ENCODING 8230
SWIDTH 651 0
DWIDTH 9 0
BBX 7 2 1 0
BITMAP
20020020
40040040
ENDCHAR
STARTCHAR guilsinglleft
ENCODING 8249
SWIDTH 263 0
DWIDTH 4 0
BBX 3 6 0 1
BITMAP
0030
0230
1500
3300
0420
0050
ENDCHAR
STARTCHAR guilsinglright
ENCODING 8250
SWIDTH 263 0
DWIDTH 4 0
BBX 3 6 0 1
BITMAP
2300
0420
0050
0060
0500
2100
ENDCHAR
STARTCHAR fraction
ENCODING 8260
SWIDTH 152 0
DWIDTH 2 0
BBX 6 10 -2 0
BITMAP
000014
000050
000050
000400
000500
004100
005000
041000
050000
320000
ENDCHAR
STARTCHAR uni2074
ENCODING 8308
SWIDTH 247 0
DWIDTH 3 0
BBX 3 5 0 5
BITMAP
0400
0500
3420
4650
0220
ENDCHAR
STARTCHAR Euro
ENCODING 8364
SWIDTH 391 0
DWIDTH 5 0
BBX 5 10 0 0
BITMAP
005440
050000
050000
050000
474100
474100
050000
050000
050000
005440
ENDCHAR
STARTCHAR trademark
ENCODING 8482
SWIDTH 506 0
DWIDTH 7 0
BBX 7 5 0 5
BITMAP
AFB73550
04057650
04045340
04047440
04040040
ENDCHAR
STARTCHAR minus
ENCODING 8722
SWIDTH 557 0
DWIDTH 8 0
BBX 8 1 0 4
BITMAP
5DDDDDD3
ENDCHAR
STARTCHAR uni2215
ENCODING 8725
SWIDTH 259 0
DWIDTH 4 0
BBX 4 10 0 0
BITMAP
0004
0032
0050
0050
0320
0500
0500
2200
5000
4000
ENDCHAR
STARTCHAR .notdef
ENCODING -1
SWIDTH 500 0
DWIDTH 7 0
BBX 7 13 0 -3
BITMAP
4CBBBC40
46000640
46000640
46000640
46000640
46000640
46000640
46000640
46000640
46000640
46000640
46000640
4BBBBB40
ENDCHAR
STARTCHAR NULL
ENCODING -1
SWIDTH 600 0
DWIDTH 8 0
BBX 1 1 0 0
BITMAP
00
ENDCHAR
STARTCHAR acutecomb.case
ENCODING -1
SWIDTH 0 0
DWIDTH 0 0
BBX 2 2 0 10
BITMAP
05
11
ENDCHAR
STARTCHAR uni0302.case
ENCODING -1
SWIDTH 0 0
DWIDTH 0 0
BBX 2 2 1 10
BITMAP
41
34
ENDCHAR
STARTCHAR uni0308.case
ENCODING -1
SWIDTH 0 0
DWIDTH 0 0
BBX 3 2 0 10
BITMAP
2240
1110
ENDCHAR
STARTCHAR uni0307.case
ENCODING -1
SWIDTH 0 0
DWIDTH 0 0
BBX 2 2 0 10
BITMAP
22
11
ENDCHAR
STARTCHAR gravecomb.case
ENCODING -1
SWIDTH 0 0
DWIDTH 0 0
BBX 2 2 0 10
BITMAP
14
02
ENDCHAR
STARTCHAR uni030A.case
ENCODING -1
SWIDTH 0 0
DWIDTH 0 0
BBX 2 2 1 10
BITMAP
52
52
ENDCHAR
STARTCHAR tildecomb.case
ENCODING -1
SWIDTH 0 0
DWIDTH 0 0
BBX 4 2 0 11
BITMAP
0512
1151
ENDCHAR
ENDFONT
